<svg xmlns="http://www.w3.org/2000/svg" width="728.533" height="492.406" viewBox="0 0 728.533 492.406">
  <defs>
    <style>
      .cls-1 {
        fill: #ccc;
      }

      .cls-2 {
        fill: #f2f2f2;
      }

      .cls-3 {
        fill: #113dff;
      }

      .cls-4 {
        fill: #3f3d56;
      }

      .cls-5 {
        fill: #fff;
      }

      .cls-6 {
        fill: #e6e6e6;
      }

      .cls-7 {
        fill: #ffb6b6;
      }

      .cls-8 {
        fill: #e4e4e4;
      }

      .cls-9 {
        fill: #2f2e41;
      }
    </style>
  </defs>
  <g id="undraw" transform="translate(-1045.467 -303.594)">
    <g id="Group_1" data-name="Group 1" transform="translate(775.325 303.594)">
      <path id="Path_1" data-name="Path 1" class="cls-1" d="M1087.453,412.839H420.619a10.676,10.676,0,1,0,0,21.352h18.888v255.4a10.676,10.676,0,1,0,21.352,0l.162-255.4h535.2l49.347,255.4a10.676,10.676,0,1,0,21.352,0l3.106-255.4h17.424a10.676,10.676,0,1,0,0-21.352Z" transform="translate(-105.606 -209.441)"/>
      <path id="Path_2" data-name="Path 2" class="cls-2" d="M537.646,371.852v45.21H424.379a22.618,22.618,0,1,1-1.573-45.21q.786-.027,1.573,0Z" transform="translate(-107.046 -216.024)"/>
      <path id="Path_3" data-name="Path 3" class="cls-3" d="M540.764,416.857a1.739,1.739,0,0,1-1.739,1.739H422.7a23.822,23.822,0,1,1,0-47.644H539.026a1.739,1.739,0,1,1,0,3.478H422.7a20.344,20.344,0,1,0,0,40.689H539.026a1.739,1.739,0,0,1,1.739,1.739Z" transform="translate(-107.383 -216.167)"/>
      <path id="Path_4" data-name="Path 4" class="cls-1" d="M535.625,380.936H413.908a.348.348,0,1,1-.006-.7H535.625a.348.348,0,1,1,0,.7Z" transform="translate(-105.025 -214.675)"/>
      <path id="Path_5" data-name="Path 5" class="cls-1" d="M535.625,388.128H413.908a.348.348,0,1,1-.006-.7H535.625a.348.348,0,1,1,0,.7Z" transform="translate(-105.025 -213.521)"/>
      <path id="Path_6" data-name="Path 6" class="cls-1" d="M535.625,395.319H413.908a.348.348,0,1,1-.006-.7H535.625a.348.348,0,1,1,0,.7Z" transform="translate(-105.025 -212.366)"/>
      <path id="Path_7" data-name="Path 7" class="cls-1" d="M535.625,402.511H413.908a.348.348,0,1,1-.006-.7H535.625a.348.348,0,1,1,0,.7Z" transform="translate(-105.025 -211.211)"/>
      <path id="Path_8" data-name="Path 8" class="cls-2" d="M519.248,330.811v45.21H405.981a22.618,22.618,0,1,1-1.573-45.21q.786-.027,1.573,0Z" transform="translate(-110 -222.614)"/>
      <path id="Path_9" data-name="Path 9" class="cls-4" d="M522.368,375.815a1.74,1.74,0,0,1-1.739,1.739H404.3a23.822,23.822,0,1,1,0-47.644H520.628a1.739,1.739,0,1,1,0,3.478H404.3a20.344,20.344,0,0,0,0,40.689H520.628a1.739,1.739,0,0,1,1.74,1.739Z" transform="translate(-110.337 -222.757)"/>
      <path id="Path_10" data-name="Path 10" class="cls-1" d="M517.227,339.9H395.51a.348.348,0,1,1-.006-.7H517.227a.348.348,0,0,1,0,.7Z" transform="translate(-107.98 -221.265)"/>
      <path id="Path_11" data-name="Path 11" class="cls-1" d="M517.227,347.087H395.51a.348.348,0,1,1-.006-.7H517.227a.348.348,0,0,1,0,.7Z" transform="translate(-107.98 -220.11)"/>
      <path id="Path_12" data-name="Path 12" class="cls-1" d="M517.227,354.278H395.51a.348.348,0,1,1-.006-.7H517.227a.348.348,0,1,1,0,.7Z" transform="translate(-107.98 -218.956)"/>
      <path id="Path_13" data-name="Path 13" class="cls-1" d="M517.227,361.47H395.51a.348.348,0,1,1-.006-.7H517.227a.348.348,0,1,1,0,.7Z" transform="translate(-107.98 -217.801)"/>
      <path id="Path_14" data-name="Path 14" class="cls-1" d="M636.371,557.046V517.627a6.57,6.57,0,0,0-6.57-6.57H480.337a6.57,6.57,0,0,0-6.57,6.57v39.419Z" transform="translate(-95.358 -193.671)"/>
      <rect id="Rectangle_1" data-name="Rectangle 1" class="cls-1" width="162.602" height="50.916" transform="translate(378.41 378.158)"/>
      <path id="Path_15" data-name="Path 15" class="cls-1" d="M473.768,620.029v39.419a6.57,6.57,0,0,0,6.57,6.57H629.8a6.57,6.57,0,0,0,6.57-6.569V620.029Z" transform="translate(-95.357 -176.173)"/>
      <circle id="Ellipse_2" data-name="Ellipse 2" class="cls-5" cx="4.927" cy="4.927" r="4.927" transform="translate(453.962 337.096)"/>
      <circle id="Ellipse_3" data-name="Ellipse 3" class="cls-5" cx="4.927" cy="4.927" r="4.927" transform="translate(453.962 402.795)"/>
      <circle id="Ellipse_4" data-name="Ellipse 4" class="cls-5" cx="4.927" cy="4.927" r="4.927" transform="translate(454.227 467.101)"/>
      <path id="Path_16" data-name="Path 16" class="cls-2" d="M616.9,472.333v45.21H503.631a22.619,22.619,0,1,1-1.574-45.21q.787-.027,1.574,0Z" transform="translate(-94.321 -199.891)"/>
      <path id="Path_17" data-name="Path 17" class="cls-4" d="M620.018,517.337a1.739,1.739,0,0,1-1.739,1.739H501.953a23.822,23.822,0,1,1-.029-47.644H618.28a1.739,1.739,0,0,1,0,3.478H501.953a20.344,20.344,0,0,0,0,40.689H618.28A1.739,1.739,0,0,1,620.018,517.337Z" transform="translate(-94.659 -200.033)"/>
      <path id="Path_18" data-name="Path 18" class="cls-1" d="M614.878,481.416H493.16a.348.348,0,1,1-.006-.7H614.878a.348.348,0,1,1,0,.7Z" transform="translate(-92.3 -198.542)"/>
      <path id="Path_19" data-name="Path 19" class="cls-1" d="M614.878,488.608H493.16a.348.348,0,1,1-.006-.7H614.878a.348.348,0,1,1,0,.7Z" transform="translate(-92.3 -197.387)"/>
      <path id="Path_20" data-name="Path 20" class="cls-1" d="M614.878,495.8H493.16a.348.348,0,1,1-.006-.7H614.878a.348.348,0,0,1,0,.7Z" transform="translate(-92.3 -196.232)"/>
      <path id="Path_21" data-name="Path 21" class="cls-1" d="M614.878,502.991H493.16a.348.348,0,1,1-.006-.7H614.878a.348.348,0,1,1,0,.7Z" transform="translate(-92.3 -195.077)"/>
      <path id="Path_22" data-name="Path 22" class="cls-4" d="M492.7,317.815H441.1a3.189,3.189,0,0,0-1.412.329l-13.025,6.52a2.374,2.374,0,0,0,0,4.369l13.025,6.52a3.189,3.189,0,0,0,1.412.329h51.606a2.709,2.709,0,0,0,2.858-2.513V320.328a2.709,2.709,0,0,0-2.859-2.513Z" transform="translate(-103.153 -224.7)"/>
      <path id="Path_23" data-name="Path 23" class="cls-3" d="M487.648,320.327v13.041a2.709,2.709,0,0,1-2.858,2.513H474.508V317.815H484.79a2.709,2.709,0,0,1,2.858,2.513Z" transform="translate(-95.239 -224.7)"/>
      <path id="Path_29" data-name="Path 29" class="cls-6" d="M744.454,416.051l-5.449-2.294-3.738-27.315H685.492l-4.052,27.2-4.875,2.437a1.158,1.158,0,0,0,.518,2.193h66.922a1.158,1.158,0,0,0,.449-2.225Z" transform="translate(-62.898 -213.68)"/>
      <path id="Path_30" data-name="Path 30" class="cls-1" d="M845.687,395.014H601.176a4.844,4.844,0,0,1-4.833-4.844V355.691H850.52V390.17a4.844,4.844,0,0,1-4.832,4.844Z" transform="translate(-75.676 -218.617)"/>
      <path id="Path_31" data-name="Path 31" class="cls-4" d="M850.807,390.951H596.15V243.421a5.846,5.846,0,0,1,5.84-5.84H844.967a5.846,5.846,0,0,1,5.84,5.84Z" transform="translate(-75.707 -237.582)"/>
      <path id="Path_32" data-name="Path 32" class="cls-5" d="M834.116,378.762H609.878a4.507,4.507,0,0,1-4.5-4.5V251.31a4.507,4.507,0,0,1,4.5-4.5H834.116a4.507,4.507,0,0,1,4.5,4.5V374.26a4.507,4.507,0,0,1-4.5,4.5Z" transform="translate(-74.226 -236.1)"/>
      <path id="Path_33" data-name="Path 33" class="cls-7" d="M752.192,398.382a13.481,13.481,0,0,1,20.5,2.637l30.331-5.392L810.8,413.26l-42.94,7.014a13.554,13.554,0,0,1-15.666-21.891Z" transform="translate(-51.362 -212.337)"/>
      <path id="Path_34" data-name="Path 34" class="cls-3" d="M775.776,429.671l31.62-.394,4-.054,64.333-.811s17.47-16.667,32.682-33.826l-2.132-15.422a63.01,63.01,0,0,0-21.126-39.012c-21.787,14.558-34.422,43.375-34.422,43.375l-39.889,9.541-3.991.954-24.785,5.923Z" transform="translate(-46.865 -221.112)"/>
      <path id="Path_35" data-name="Path 35" class="cls-8" d="M933.613,498.962H874.59c0,2.529-64.521,4.582-64.521,4.582a23.564,23.564,0,0,0-3.867,3.665,22.743,22.743,0,0,0-5.315,14.661v3.665A22.916,22.916,0,0,0,823.8,548.443H933.614a22.928,22.928,0,0,0,22.908-22.908V521.87a22.94,22.94,0,0,0-22.909-22.908Z" transform="translate(-42.833 -195.613)"/>
      <rect id="Rectangle_2" data-name="Rectangle 2" class="cls-8" width="23.824" height="137.516" transform="translate(824.034 351.92)"/>
      <path id="Path_36" data-name="Path 36" class="cls-8" d="M799.312,661.761c0,2.574,36.1,1,80.636,1s80.636,1.578,80.636-1-36.1-22.987-80.636-22.987S799.312,659.187,799.312,661.761Z" transform="translate(-43.086 -173.164)"/>
      <path id="Path_37" data-name="Path 37" class="cls-7" d="M678.806,416.923H661.075l-8.435-68.391h26.168Z" transform="translate(61.416 55.963)"/>
      <path id="Path_38" data-name="Path 38" class="cls-9" d="M797.329,663.031l-57.172,0v-.723a22.254,22.254,0,0,1,22.252-22.253H797.33Z" transform="translate(-52.584 -172.958)"/>
      <path id="Path_39" data-name="Path 39" class="cls-7" d="M633.651,416.923H615.92l-8.435-68.391h26.169Z" transform="translate(54.166 55.963)"/>
      <path id="Path_40" data-name="Path 40" class="cls-9" d="M752.174,663.031l-57.172,0v-.723a22.254,22.254,0,0,1,22.252-22.253h34.922Z" transform="translate(-59.835 -172.958)"/>
      <circle id="Ellipse_5" data-name="Ellipse 5" class="cls-7" cx="30.829" cy="30.829" r="30.829" transform="translate(815.818 17.492)"/>
      <path id="Path_41" data-name="Path 41" class="cls-9" d="M945.809,462.577s10.344,54.7-29.014,61.664S820.623,536.1,820.623,536.1L795.109,655.137l-34.277-3.06s4.559-143.292,15.769-154.5S858.668,452.8,858.668,452.8Z" transform="translate(-49.264 -203.025)"/>
      <path id="Path_42" data-name="Path 42" class="cls-9" d="M876.408,441.471,859.195,458.74s-124.29,20.02-129.085,48.727c-7.239,43.341-15.789,137.587-15.789,137.587l37.369-2.8,14.654-107.133,59.79-13.6,68.025-37.072Z" transform="translate(-56.733 -204.844)"/>
      <path id="Path_43" data-name="Path 43" class="cls-9" d="M911.537,266.434c-3.043-5.742-6.91-17.185-13.053-19.308a48.833,48.833,0,0,0-10.513-2.24L877.531,248.9l5.682-4.419q-1.659-.1-3.317-.162l-7.044,2.709,3.6-2.8c-6.567-.067-13.346.615-18.435,4.613-4.338,3.408-8.637,16.32-9.332,21.793a41.685,41.685,0,0,0,.766,15.7l1.784,1.7a21.881,21.881,0,0,0,1.4-4.455,21.1,21.1,0,0,1,10.1-13.7l.1-.055c2.992-1.684,6.623-1.606,10.054-1.483l16.3.586c3.921.141,8.143.389,11.2,2.849a18.442,18.442,0,0,1,4.478,6.487c1.519,3.066,4.487,14.628,4.487,14.628s1.679-2.183,2.484-.558a56.164,56.164,0,0,0,2.338-13.037A25.542,25.542,0,0,0,911.537,266.434Z" transform="translate(-35.224 -236.515)"/>
      <path id="Path_44" data-name="Path 44" class="cls-7" d="M1000.812,290.888a13.481,13.481,0,0,0-12.2,16.687L963.82,325.862l7.439,17.776,34.647-26.317a13.554,13.554,0,0,0-5.093-26.433Z" transform="translate(-16.671 -229.028)"/>
      <path id="Path_45" data-name="Path 45" class="cls-3" d="M1010,325.641l-62.15,69.024s-29.721-9.514-52.707-19.83L884.822,343.12A63.07,63.07,0,0,1,881.8,320.3c31.865-8.479,68.927,23.07,68.927,23.07l46.522-36.44Z" transform="translate(-29.854 -226.447)"/>
      <path id="Path_46" data-name="Path 46" class="cls-3" d="M872.206,489.812c-11.088-3.83-22.553-7.791-34.92-9.277l-.531-.064.147-.514c12.8-44.95,9.607-73.7,3.333-116.9a43.627,43.627,0,0,1,25.008-45.844l.076-.034,35.321-2.244.08,0,25.688,7.555A17.621,17.621,0,0,1,939.02,339.7c-.278,14.2.312,30.064.937,46.853,1.4,37.667,2.851,76.617-5.374,101.888l-.043.132-.11.086a41.9,41.9,0,0,1-26.787,9.409C896.113,498.069,884.347,494,872.206,489.812Z" transform="translate(-37.074 -225.162)"/>
      <path id="Path_47" data-name="Path 47" class="cls-1" d="M799.485,661.582H111.334a1,1,0,0,1,0-1.995H799.484a1,1,0,1,1,0,1.995Z" transform="translate(198.194 -169.176)"/>
    </g>
  </g>
</svg>
