<svg xmlns="http://www.w3.org/2000/svg" width="29.308" height="28.583" viewBox="0 0 29.308 28.583"><path d="M17.654,3A14.655,14.655,0,0,0,13.02,31.558c.733.128,1.006-.313,1.006-.7,0-.347-.019-1.5-.019-2.729-3.681.679-4.634-.9-4.927-1.722a5.338,5.338,0,0,0-1.5-2.07c-.513-.274-1.246-.953-.019-.97a2.933,2.933,0,0,1,2.254,1.5,3.132,3.132,0,0,0,4.267,1.208,3.082,3.082,0,0,1,.935-1.96c-3.261-.366-6.668-1.631-6.668-7.236a5.706,5.706,0,0,1,1.5-3.939A5.266,5.266,0,0,1,10,9.061s1.227-.384,4.03,1.5a13.809,13.809,0,0,1,7.327,0c2.8-1.905,4.03-1.5,4.03-1.5a5.266,5.266,0,0,1,.147,3.883,5.669,5.669,0,0,1,1.5,3.937c0,5.624-3.425,6.87-6.685,7.236a3.471,3.471,0,0,1,.99,2.711c0,1.96-.019,3.535-.019,4.03,0,.384.275.841,1.008.695A14.661,14.661,0,0,0,17.654,3Z" transform="translate(-3 -3)" fill="#fff" fill-rule="evenodd"/></svg>