<svg xmlns="http://www.w3.org/2000/svg" width="28.583" height="28.583" viewBox="0 0 28.583 28.583"><path d="M5.608.009a5.618,5.618,0,0,0-5.6,5.6V22.992a5.617,5.617,0,0,0,5.6,5.6H22.99a5.616,5.616,0,0,0,5.6-5.6V5.611a5.618,5.618,0,0,0-5.6-5.6ZM7.017,4.726a2.251,2.251,0,1,1-.029,4.487H6.96a2.25,2.25,0,1,1,.056-4.487Zm12.727,5.957c2.84,0,4.969,1.856,4.969,5.846v7.448H20.4V17.028c0-1.746-.624-2.937-2.187-2.937A2.364,2.364,0,0,0,16,15.669a2.947,2.947,0,0,0-.142,1.053v7.254H11.536s.056-11.77,0-12.989h4.317v1.84a4.285,4.285,0,0,1,3.891-2.144ZM4.83,10.988H9.146V23.976H4.83Z" transform="translate(-0.007 -0.009)" fill="#fff"/></svg>