<svg xmlns="http://www.w3.org/2000/svg" width="28.583" height="28.583" viewBox="0 0 28.583 28.583"><path d="M24.285,18.318a5.955,5.955,0,1,1-5.955-5.955,5.955,5.955,0,0,1,5.955,5.955Z" transform="translate(-4.075 -4.076)" fill="#fff"/><path d="M12.969,12.9a8.338,8.338,0,0,1,13.89,3.544h6.259V8.034a3.448,3.448,0,0,0-3.5-3.5H8.182a3.575,3.575,0,0,0-3.647,3.5v8.411h6.333A8.224,8.224,0,0,1,12.969,12.9Zm17.767-2.172a.953.953,0,0,1-.953.953H26.925a.953.953,0,0,1-.953-.953V7.87a.953.953,0,0,1,.953-.953h2.858a.953.953,0,0,1,.953.953Z" transform="translate(-4.535 -4.535)" fill="#fff"/><path d="M24.759,23.9A8.364,8.364,0,0,1,12.97,23.9a8.36,8.36,0,0,1-2.441-5.869H4.535V28.68a3.7,3.7,0,0,0,3.647,3.647H29.619a3.575,3.575,0,0,0,3.5-3.647V18.035H27.2A8.352,8.352,0,0,1,24.759,23.9Z" transform="translate(-4.535 -3.743)" fill="#fff"/></svg>